<?xml version="1.0" encoding="UTF-8" standalone="no"?>
<!-- Generator: Adobe Illustrator 16.2.1, SVG Export Plug-In . SVG Version: 6.00 Build 0)  -->

<svg
   xmlns:dc="http://purl.org/dc/elements/1.1/"
   xmlns:cc="http://creativecommons.org/ns#"
   xmlns:rdf="http://www.w3.org/1999/02/22-rdf-syntax-ns#"
   xmlns:svg="http://www.w3.org/2000/svg"
   xmlns="http://www.w3.org/2000/svg"
   xmlns:sodipodi="http://sodipodi.sourceforge.net/DTD/sodipodi-0.dtd"
   xmlns:inkscape="http://www.inkscape.org/namespaces/inkscape"
   version="1.1"
   id="Layer_1"
   x="0px"
   y="0px"
   width="512px"
   height="512px"
   viewBox="0 0 512 512"
   style="enable-background:new 0 0 512 512;"
   xml:space="preserve"
   inkscape:version="0.48.2 r9819"
   sodipodi:docname="image.svg"><metadata
   id="metadata3112"><rdf:RDF><cc:Work
       rdf:about=""><dc:format>image/svg+xml</dc:format><dc:type
         rdf:resource="http://purl.org/dc/dcmitype/StillImage" /><dc:title></dc:title></cc:Work></rdf:RDF></metadata><defs
   id="defs3110" /><sodipodi:namedview
   pagecolor="#ffffff"
   bordercolor="#666666"
   borderopacity="1"
   objecttolerance="10"
   gridtolerance="10"
   guidetolerance="10"
   inkscape:pageopacity="0"
   inkscape:pageshadow="2"
   inkscape:window-width="1280"
   inkscape:window-height="752"
   id="namedview3108"
   showgrid="false"
   inkscape:zoom="0.97968464"
   inkscape:cx="205.68276"
   inkscape:cy="291.31034"
   inkscape:window-x="0"
   inkscape:window-y="0"
   inkscape:window-maximized="1"
   inkscape:current-layer="Layer_1" />
<g
   id="g3102"
   style="stroke:none;fill:#0099cc;fill-opacity:1">
	<path
   d="M368,224c26.5,0,48-21.5,48-48c0-26.5-21.5-48-48-48c-26.5,0-48,21.5-48,48C320,202.5,341.5,224,368,224z"
   id="path3104"
   style="stroke:none;fill:#0099cc;fill-opacity:1" />
	<path
   d="M452,64H60c-15.6,0-28,12.7-28,28.3v327.4c0,15.6,12.4,28.3,28,28.3h392c15.6,0,28-12.7,28-28.3V92.3   C480,76.7,467.6,64,452,64z M348.9,261.7c-3-3.5-7.6-6.2-12.8-6.2c-5.1,0-8.7,2.4-12.8,5.7l-18.7,15.8c-3.9,2.8-7,4.7-11.5,4.7   c-4.3,0-8.2-1.6-11-4.1c-1-0.9-2.8-2.6-4.3-4.1L224,215.3c-4-4.6-10-7.5-16.7-7.5c-6.7,0-12.9,3.3-16.8,7.8L64,368.2V107.7   c1-6.8,6.3-11.7,13.1-11.7h357.7c6.9,0,12.5,5.1,12.9,12l0.3,260.4L348.9,261.7z"
   id="path3106"
   style="stroke:none;fill:#0099cc;fill-opacity:1" />
</g>
<polygon
   id="polygon3275"
   points="96,416 224,416 174.1,366.1 357.4,182.9 366.1,174.1 416,224 416,96 288,96 337.9,145.9 274,209.7 274,209.7 145.9,337.9 96,288 "
   transform="translate(84.510345,54.496548)"
   style="fill:#0099cc;fill-opacity:1;stroke:#ffffff;stroke-width:10;stroke-miterlimit:4;stroke-opacity:1;stroke-dasharray:none" /></svg>